
<?xml version="1.0" encoding="utf-8"?><!DOCTYPE svg  PUBLIC '-//W3C//DTD SVG 1.1//EN'  'http://www.w3.org/Graphics/SVG/1.1/DTD/svg11.dtd'><svg enable_background="new 0 0 1000 765" height="765px" pretty_print="False" style="stroke-linejoin: round; stroke:#000; fill: none;" version="1.1" viewBox="0 0 1000 765" width="1000px" xmlns="http://www.w3.org/2000/svg" xmlns:xlink="http://www.w3.org/1999/xlink"><script xlink:href="SVGPan.js"/><defs><style type="text/css"><![CDATA[path { fill-rule: evenodd; }]]></style></defs><metadata><views><view h="765.980796019" padding="0" w="1000"><proj flip="auto" id="robinson" lon0="78.6247616701"/><bbox h="21.23" w="27.75" x="1128.0" y="-271.08"/></view></views></metadata><g class="" id="layer_0"><path d="M951.480440,0.000000L947.211919,1.691068L944.497500,4.692383L944.247646,10.491625L945.222009,16.015058L947.439736,23.747381L950.206547,29.339012L951.858846,34.172017L951.916946,39.349028L950.828626,43.491604L944.508361,58.677425L941.022410,64.717474L938.342033,68.341020L929.696276,76.488568L922.358849,81.977600L911.376519,83.568485L903.473147,83.503304L896.487856,82.368079L889.767550,80.197210L874.617705,71.958531L867.974636,66.751343L864.054291,62.681794L857.484539,53.265643L850.948642,46.472399L845.018450,41.231414L834.280443,36.757505L827.295391,38.250015L822.104197,43.815695L814.627694,54.009182L810.234109,59.126445L806.363617,62.445817L799.920644,62.559882L792.123247,58.880208L785.613943,57.235611L771.800049,52.429161L771.035015,63.788050L769.827700,71.972412L767.803640,76.119816L767.224097,79.710168L768.540373,85.749613L775.104903,99.883495L771.584622,106.775717L775.498237,115.245544L773.671220,118.601730L770.012752,121.615115L766.765741,123.298941L757.810378,125.352726L755.639960,128.988342L751.190177,132.109758L746.954200,129.539358L742.401317,130.600953L741.592966,134.827417L739.917270,138.744274L735.763166,139.769658L730.016641,133.538294L727.699176,134.697660L725.182285,139.697839L724.961104,144.203129L729.839169,145.863418L732.061131,147.531552L734.818288,151.573338L736.324018,157.469142L735.722861,161.626804L735.755721,166.200291L736.591306,169.060381L743.318075,170.960267L747.626302,175.344852L748.859688,178.168730L752.570399,183.046391L758.906400,188.753895L764.627202,192.507195L768.063966,194.278531L776.013454,196.907471L778.768498,199.518908L773.774950,201.664427L768.138613,202.135173L767.172090,204.058596L763.613636,205.745439L761.474222,209.697900L760.908792,213.330495L760.972759,217.940191L762.810704,220.939088L767.384684,224.103350L776.421377,227.952005L780.228772,230.593617L781.638678,235.375315L779.583011,239.256559L776.294891,242.305547L769.224840,242.955539L756.663306,242.819143L752.895506,243.982732L750.724725,247.657571L749.867645,252.340290L750.426178,256.109881L752.027997,259.806446L760.595225,265.927957L764.759788,269.616676L770.840744,273.300566L768.770626,278.040013L773.852430,281.343081L778.079682,282.447523L780.329793,283.838638L781.042162,291.660262L781.697420,295.186632L782.742439,297.454057L787.816939,300.128859L798.293009,303.031188L815.466795,308.781528L818.038031,310.590277L821.943169,308.659013L830.123448,308.880505L834.705320,308.379583L851.630814,305.121782L853.841041,302.951523L850.929152,301.421599L848.047871,301.359437L843.297930,299.414291L843.699902,294.489566L848.759307,294.685710L852.728586,295.409934L868.221298,292.331377L877.511502,291.924604L888.639881,294.868577L895.247692,297.717192L911.871577,301.206746L918.342959,301.927349L930.211967,302.250836L939.798663,303.488656L940.437809,306.876215L939.798034,294.163665L940.750401,280.750424L944.993342,258.810033L945.654182,247.634034L945.083157,225.531885L945.409989,219.826798L946.033209,193.665353L947.766510,175.877761L949.447236,170.226385L950.887299,166.668021L956.600221,156.302535L969.263235,142.159001L975.730359,136.210086L985.308001,125.591118L989.258602,121.825744L993.228699,114.539424L994.091247,109.721508L997.259303,100.358467L998.786876,84.583609L999.346389,58.189176L990.032172,30.483290L988.747352,32.667436L984.320414,37.254203L977.866173,36.698963L968.492214,29.723456L966.053565,22.819768L964.475469,14.604627L963.036194,9.425805L960.679353,3.867972L956.902032,0.554033L951.480440,0.000000Z "/><path d="M610.826755,187.794899L610.082911,190.906053L609.916894,193.665957L612.348967,196.135567L612.009231,199.839378L614.065108,203.986777L611.582806,207.907856L608.737487,210.468597L605.107442,212.334081L609.538620,219.022908L612.384276,221.035651L616.137118,222.592736L621.393424,224.038773L625.790651,224.406318L631.750262,225.778725L632.285832,229.025065L632.121871,230.667246L628.967870,232.077072L628.649300,235.430839L624.127591,236.776087L621.162395,238.220313L618.875092,239.940348L618.672391,243.504140L616.556603,245.084158L613.628344,245.166236L613.643486,247.889323L617.917494,249.409592L618.514625,252.935965L622.092077,254.598665L622.753053,257.005506L625.660799,255.875715L628.377581,257.296403L626.986673,260.166145L629.223878,263.440245L628.940273,266.830221L629.551785,268.783214L633.735944,270.339694L636.440119,269.909383L636.830017,272.388043L640.127802,276.915654L642.175671,284.768059L647.146524,285.307607L651.239128,284.558034L656.959330,282.860331L661.267811,279.524673L669.195679,280.264590L673.972575,279.862041L674.179860,282.094464L676.759332,282.507272L686.831237,290.853356L690.889049,293.248728L696.764476,295.603664L701.406213,296.530068L703.523001,296.662239L707.126275,295.985693L710.820553,289.791763L715.028124,287.226802L718.368212,290.427874L718.477576,299.266429L721.596255,303.586426L725.990499,305.667967L728.146211,305.590717L732.381356,304.179083L742.072931,303.203795L740.884601,296.989950L740.726677,292.624688L739.747424,288.960112L742.938619,284.408965L747.004571,284.291278L752.465010,287.662543L756.940585,288.485745L761.782439,280.018353L764.477172,278.053290L768.770626,278.040013L770.840744,273.300566L764.759788,269.616676L760.595225,265.927957L752.027997,259.806446L750.426178,256.109881L749.867645,252.340290L750.724725,247.657571L752.895506,243.982732L756.663306,242.819143L769.224840,242.955539L776.294891,242.305547L779.583011,239.256559L781.638678,235.375315L780.228772,230.593617L776.421377,227.952005L767.384684,224.103350L762.810704,220.939088L760.972759,217.940191L760.908792,213.330495L761.474222,209.697900L763.613636,205.745439L767.172090,204.058596L768.138613,202.135173L773.774950,201.664427L778.768498,199.518908L776.013454,196.907471L768.063966,194.278531L764.627202,192.507195L758.906400,188.753895L752.570399,183.046391L748.859688,178.168730L747.626302,175.344852L743.318075,170.960267L736.591306,169.060381L735.755721,166.200291L735.722861,161.626804L736.324018,157.469142L734.818288,151.573338L732.061131,147.531552L729.839169,145.863418L724.961104,144.203129L725.182285,139.697839L727.699176,134.697660L730.016641,133.538294L735.763166,139.769658L739.917270,138.744274L741.592966,134.827417L742.401317,130.600953L746.954200,129.539358L751.190177,132.109758L755.639960,128.988342L757.810378,125.352726L766.765741,123.298941L770.012752,121.615115L773.671220,118.601730L775.498237,115.245544L771.584622,106.775717L775.104903,99.883495L768.540373,85.749613L767.224097,79.710168L767.803640,76.119816L769.827700,71.972412L771.035015,63.788050L771.800049,52.429161L747.773506,47.681857L731.796932,46.615434L723.838778,47.774799L713.097272,53.293405L706.337245,60.527824L697.727936,63.763305L691.139130,64.818262L686.593869,68.251095L683.204166,74.199408L679.822011,79.078281L667.176784,79.498935L661.081088,77.343758L654.105443,75.745632L648.255174,77.837439L645.807883,81.229233L650.931505,93.641267L652.127038,99.873236L649.544282,109.693142L649.024296,114.274477L647.738370,115.805009L647.712604,120.785876L646.749354,128.679339L646.751245,134.649378L644.648124,139.476346L639.666606,142.847619L628.188204,146.731282L623.868724,149.646293L615.803060,156.766643L615.700005,160.084805L617.352745,164.477840L616.570168,169.228763L614.232627,173.603088L612.930415,177.275518L612.685751,185.273386L610.826755,187.794899Z "/><path d="M323.127307,158.067836L319.196113,155.286807L316.322797,152.834698L312.148881,150.490620L308.274776,152.302996L302.949575,153.358555L298.350251,151.430907L293.754448,150.162907L281.621855,149.367466L272.447336,147.906943L260.386106,145.069787L253.648340,141.800509L246.140200,140.749777L237.552945,141.056366L229.660497,138.691768L220.736687,134.184666L215.226030,132.228048L212.914994,132.826138L210.218284,134.843712L205.710364,136.245090L201.692891,136.363380L197.741257,135.581216L194.139084,136.980783L189.249953,137.724925L184.798998,136.045324L180.118339,132.735610L176.675083,131.432003L166.961477,131.709623L156.072179,130.574398L148.060998,127.383578L143.628771,127.713101L138.857966,129.290707L128.429841,126.872395L125.614856,125.324361L120.510671,123.058136L118.012110,123.657433L114.048322,126.099887L109.371207,126.775831L104.905222,126.760743L96.709675,127.835012L88.665311,127.349780L84.896316,127.745691L79.932976,130.469989L72.818184,131.124810L65.816544,133.477338L62.562917,136.125592L59.302821,139.639900L54.499280,140.596483L46.274281,143.198265L38.976926,147.217721L32.457739,152.132199L27.361296,158.428138L23.995917,165.756099L21.611952,172.316984L16.321955,179.759009L12.812920,186.325324L11.104058,191.254888L8.326091,199.171280L9.593462,200.550326L11.800872,202.896214L14.900894,203.608973L17.205583,202.939668L19.097717,205.252965L23.625012,206.167300L24.612885,203.631907L30.835341,204.330784L31.084197,219.544954L34.226758,220.674746L32.757718,231.320860L31.294158,231.050482L30.012500,235.007770L29.014059,240.211932L26.864410,239.944573L26.415226,241.957919L28.996253,243.088314L28.755070,248.359466L26.028491,247.643086L25.191535,257.803964L27.395096,258.590352L27.801976,263.511460L36.280282,264.302676L43.441224,265.656373L44.088449,272.307774L48.449569,273.155721L47.819129,281.373257L45.973669,282.561589L45.063724,284.055302L58.937640,291.271595L64.489981,295.857143L69.575610,301.380560L72.881140,303.203191L72.030924,316.381655L70.241180,323.669158L63.212196,318.363011L61.146743,315.217465L58.408474,312.213746L54.488974,310.185919L50.231010,306.981227L44.282486,314.185446L27.421583,319.361233L25.666315,319.579104L23.774730,318.478283L22.894172,321.186277L24.900242,334.748573L25.664213,339.930392L40.222837,344.714491L48.427160,349.010946L55.738219,352.200546L67.021407,354.853617L71.033717,353.794440L70.409208,350.989283L74.082586,350.902979L78.512858,344.398851L83.494233,340.564088L88.277163,340.022731L87.070360,332.712298L91.920277,332.830588L98.428319,335.469779L101.954429,334.241617L114.933220,335.746795L114.350926,340.498304L107.762871,344.167099L107.824751,350.061070L108.565674,358.656995L111.600342,355.003289L113.867359,351.178788L118.614816,349.980802L123.810860,351.379156L132.226114,355.609223L148.738260,357.206135L155.786278,363.382550L159.506888,365.309586L164.136961,365.430290L168.812179,364.753141L183.713417,368.647650L187.536818,369.118395L193.967010,375.369643L196.137934,366.832265L198.679953,362.004716L206.541186,353.897039L209.616172,353.121516L208.762988,344.944432L206.749830,339.820552L208.194167,330.904153L207.865133,325.463422L204.264957,322.252697L204.225696,318.162643L208.368077,316.518654L210.148618,307.568452L220.345752,309.334352L227.444270,311.630746L228.792751,308.299315L231.508741,305.205067L233.277619,302.008221L232.979864,284.227909L231.611758,279.969468L231.469608,271.788143L232.993140,269.254563L231.091206,262.190957L232.373417,259.447351L235.085708,257.878197L241.714902,262.292952L249.457380,265.073975L256.193892,268.724672L260.282676,269.334228L263.919039,263.327386L270.739373,266.251444L271.728568,273.874514L292.763106,277.861371L295.948262,276.015201L298.542090,273.581203L303.288021,273.290306L307.755689,268.701738L307.800641,264.508477L307.338101,261.182474L304.914601,258.208323L300.534196,254.410366L298.355713,249.530296L301.880059,245.811400L301.989031,241.963350L304.821405,231.731858L308.789451,232.378832L309.557611,236.258266L312.657327,236.663832L318.280035,234.221382L322.106989,233.796503L325.111483,223.114179L326.553727,216.109107L324.157680,213.725802L322.208151,212.967779L321.844291,210.612235L319.259625,210.376862L316.728131,208.202374L319.020116,197.592467L320.128456,194.990686L324.994128,194.941198L326.643997,192.129994L327.297158,187.520297L326.362914,185.097158L326.943255,177.923096L325.188750,174.499318L325.377632,170.859479L320.461507,169.487070L318.900492,171.328415L316.539634,171.439463L313.666954,165.937759L317.084054,166.690351L320.551558,166.715095L323.001517,165.322771L325.162004,165.386140L326.900245,162.478373L323.127307,158.067836Z "/><path d="M326.900245,162.478373L325.162004,165.386140L323.001517,165.322771L320.551558,166.715095L317.084054,166.690351L313.666954,165.937759L316.539634,171.439463L318.900492,171.328415L320.461507,169.487070L325.377632,170.859479L325.188750,174.499318L326.943255,177.923096L326.362914,185.097158L327.297158,187.520297L326.643997,192.129994L324.994128,194.941198L320.128456,194.990686L319.020116,197.592467L316.728131,208.202374L319.259625,210.376862L321.844291,210.612235L322.208151,212.967779L324.157680,213.725802L326.553727,216.109107L331.509679,216.026425L333.592880,222.085175L338.139881,227.511434L341.707152,230.690784L341.353122,234.573235L348.188843,234.865943L353.122479,234.576253L360.770086,235.803211L364.084296,238.636139L365.567806,246.187997L365.912095,254.538313L364.862841,266.392668L365.039955,271.557598L378.581424,274.295168L379.848538,281.917029L379.943203,287.495972L385.176100,289.875049L390.886006,288.612485L395.435383,290.403733L403.182511,294.509482L399.491347,302.489830L401.447445,305.188772L404.869339,306.011370L403.960738,315.303165L405.784079,319.493404L411.324318,322.818798L415.741004,325.477303L418.026685,322.426511L420.761454,315.461891L422.921231,312.723721L424.914387,312.062866L429.333162,320.331693L432.903288,319.841031L435.261634,316.895251L436.224648,310.001845L435.198162,302.559839L437.344345,300.929730L439.621825,303.730668L445.250602,323.459133L440.943736,330.009737L439.905560,334.927215L437.259805,339.051064L435.753566,343.037311L433.858088,341.862258L432.177901,348.790058L426.916927,353.298951L424.889963,366.462307L428.233440,368.706795L436.188277,364.606486L436.530652,359.585207L437.942974,356.849455L440.099650,357.503066L441.834562,353.934457L442.179693,349.570409L445.028291,342.156776L447.103924,333.878298L447.638101,325.499634L455.272436,328.190125L460.695435,328.425497L463.440801,330.292184L467.163861,329.768329L469.390794,330.491949L469.087700,333.089498L471.504114,333.534895L471.784510,335.716015L479.119124,339.789772L488.137593,343.855080L487.146405,350.816676L492.372933,352.843897L494.689949,333.520411L505.821098,335.592897L514.590204,336.520507L522.576053,339.297904L530.988930,344.493000L536.255575,346.420641L541.124496,348.330780L542.519879,342.874964L542.108895,340.164558L546.876094,337.595979L546.034130,331.707438L547.356334,326.716933L548.010602,321.258700L549.777174,314.369520L559.341332,315.367138L563.529580,318.705207L568.778030,329.350693L570.896905,335.603157L573.714428,341.149502L574.973659,335.298983L577.240918,330.493760L578.529867,334.160745L579.433415,340.314231L582.344697,332.848090L585.797558,330.174498L589.383504,329.039880L593.426553,330.734564L596.390685,334.464315L598.448026,339.562245L600.051756,344.451961L601.483230,353.259722L608.526938,353.542773L613.719571,355.304446L617.293355,361.585873L614.495156,369.574051L613.351929,375.667178L615.987022,382.163454L619.814764,382.424778L627.317438,379.767485L630.540452,376.953277L636.073891,375.528369L639.633632,373.134813L636.640980,368.950616L634.408159,363.054235L634.281151,356.625549L637.625240,350.323601L640.698411,346.678344L652.323507,345.899200L650.219819,342.098838L649.371832,338.189238L651.583345,332.276557L653.256116,329.125580L658.019184,322.224935L661.092356,320.047435L668.433444,318.482508L672.472432,318.119189L676.081842,316.323717L674.924985,312.135892L673.215367,302.221264L673.580650,290.901637L674.561513,286.217716L674.179860,282.094464L673.972575,279.862041L669.195679,280.264590L661.267811,279.524673L656.959330,282.860331L651.239128,284.558034L647.146524,285.307607L642.175671,284.768059L640.127802,276.915654L636.830017,272.388043L636.440119,269.909383L633.735944,270.339694L629.551785,268.783214L628.940273,266.830221L629.223878,263.440245L626.986673,260.166145L628.377581,257.296403L625.660799,255.875715L622.753053,257.005506L622.092077,254.598665L618.514625,252.935965L617.917494,249.409592L613.643486,247.889323L613.628344,245.166236L616.556603,245.084158L618.672391,243.504140L618.875092,239.940348L621.162395,238.220313L624.127591,236.776087L628.649300,235.430839L628.967870,232.077072L632.121871,230.667246L632.285832,229.025065L631.750262,225.778725L625.790651,224.406318L621.393424,224.038773L616.137118,222.592736L612.384276,221.035651L609.538620,219.022908L605.107442,212.334081L608.737487,210.468597L611.582806,207.907856L614.065108,203.986777L612.009231,199.839378L612.348967,196.135567L609.916894,193.665957L610.082911,190.906053L610.826755,187.794899L603.569339,187.777397L602.179330,187.223364L596.631942,187.069466L590.318333,187.861890L591.728553,196.309984L588.262041,199.118773L583.055698,200.990293L578.557377,200.553344L557.752356,190.549371L554.650157,187.041101L548.343117,174.785387L543.949921,173.921748L541.913160,158.314676L539.796433,155.914470L535.801086,155.560203L533.657591,158.035246L530.017887,160.112567L529.226344,163.938292L525.960645,174.094355L524.226017,181.780203L519.765174,180.729472L508.008577,172.829374L502.731087,171.765968L492.717768,172.381560L484.320030,171.429807L472.851018,166.397643L461.683333,159.765542L455.717170,159.731745L450.943505,161.911666L446.002949,171.949439L443.187523,173.125703L437.716837,173.056901L434.499096,172.122650L430.107558,173.160707L426.345311,175.758868L422.001863,177.248963L416.798746,178.290037L411.757818,177.530204L405.847690,175.907334L401.015279,173.520406L395.430075,171.412908L389.991952,171.972373L384.115127,170.386921L380.268907,168.174411L376.362768,166.619739L371.633951,165.552712L367.134771,167.050050L363.207726,169.270406L359.839757,172.358627L355.182257,173.231319L342.035530,171.662766L336.235781,170.219746L331.422153,167.700646L326.900245,162.478373Z "/><path d="M246.172041,569.497936L254.793056,569.640365L258.507454,571.258385L259.813173,573.785899L260.853504,578.049117L270.145078,580.271857L267.349028,576.535506L268.970111,575.246402L269.187802,571.083366L278.306099,574.728587L283.823976,577.589844L286.478438,578.273624L287.613860,576.467309L293.760020,574.574088L294.323278,572.039935L296.730815,570.817820L308.062115,569.324124L310.245110,570.288539L317.640122,577.688820L320.820281,579.274249L325.506888,580.335829L329.947102,582.057048L333.730507,584.092094L339.304478,590.422945L342.391121,592.668616L347.454857,594.076008L355.675233,594.261889L356.675775,580.798120L366.652323,579.487289L368.297219,570.428554L370.017869,570.146110L373.555922,568.368159L373.797980,565.418788L379.117032,563.981218L382.846366,564.180378L386.605747,565.314984L388.296941,562.500196L385.542004,561.431976L387.490356,556.779488L389.181394,558.127738L391.106514,557.081848L388.565301,553.723293L389.399673,548.206570L386.569075,546.376111L387.337553,537.946221L388.977841,529.513311L389.828024,521.291626L388.225119,513.526196L386.022241,511.729531L383.302953,513.261856L373.740460,504.166275L369.016440,503.070290L368.693594,498.839645L375.408477,489.387379L375.733858,484.773499L376.813602,482.101732L376.002076,478.288716L376.943510,474.853501L380.958605,467.803824L395.917059,475.567461L400.010729,476.909078L400.810219,473.300050L402.612499,472.914403L401.134179,469.624031L398.311923,466.302275L396.206146,467.728988L394.478986,466.034314L395.631931,464.748220L392.727992,461.565876L392.582420,457.542832L393.481116,454.003809L389.016280,452.385780L388.033669,449.057987L390.119702,448.707343L389.022054,441.393318L385.911408,433.912719L382.980174,430.452150L373.103567,429.645850L368.829515,430.593373L368.068440,426.365732L369.914682,423.275117L369.528791,415.613458L372.641725,412.068393L376.804892,409.700188L376.957385,405.573331L373.273538,404.923946L375.438783,395.938765L375.437591,390.598230L376.495728,388.065867L374.751287,385.885957L377.308193,385.567903L386.152221,393.553660L388.606814,395.003312L391.086406,392.015292L399.313729,394.733539L401.377539,391.330902L397.983669,387.006088L398.871703,379.308207L401.960330,378.987135L399.323826,375.700372L401.652783,374.655077L403.692165,375.378093L403.994367,371.841472L384.863236,361.488103L387.189705,361.031843L387.904275,355.691905L387.526959,352.538517L389.744088,348.510629L395.849704,343.400026L398.245042,335.214490L402.172908,332.985692L402.068604,326.330077L405.784079,319.493404L403.960738,315.303165L404.869339,306.011370L401.447445,305.188772L399.491347,302.489830L403.182511,294.509482L395.435383,290.403733L390.886006,288.612485L385.176100,289.875049L379.943203,287.495972L379.848538,281.917029L378.581424,274.295168L365.039955,271.557598L364.862841,266.392668L365.912095,254.538313L365.567806,246.187997L364.084296,238.636139L360.770086,235.803211L353.122479,234.576253L348.188843,234.865943L341.353122,234.573235L341.707152,230.690784L338.139881,227.511434L333.592880,222.085175L331.509679,216.026425L326.553727,216.109107L325.111483,223.114179L322.106989,233.796503L318.280035,234.221382L312.657327,236.663832L309.557611,236.258266L308.789451,232.378832L304.821405,231.731858L301.989031,241.963350L301.880059,245.811400L298.355713,249.530296L300.534196,254.410366L304.914601,258.208323L307.338101,261.182474L307.800641,264.508477L307.755689,268.701738L303.288021,273.290306L298.542090,273.581203L295.948262,276.015201L292.763106,277.861371L271.728568,273.874514L270.739373,266.251444L263.919039,263.327386L260.282676,269.334228L256.193892,268.724672L249.457380,265.073975L241.714902,262.292952L235.085708,257.878197L232.373417,259.447351L231.091206,262.190957L232.993140,269.254563L231.469608,271.788143L231.611758,279.969468L232.979864,284.227909L233.277619,302.008221L231.508741,305.205067L228.792751,308.299315L227.444270,311.630746L220.345752,309.334352L210.148618,307.568452L208.368077,316.518654L204.225696,318.162643L204.264957,322.252697L207.865133,325.463422L208.194167,330.904153L206.749830,339.820552L208.762988,344.944432L209.616172,353.121516L212.976421,355.814419L218.384545,361.203242L226.209909,363.948651L229.688242,364.700032L231.227530,368.542637L227.904193,375.557941L226.982975,381.004698L235.518590,383.053644L232.725324,386.322905L229.247248,399.303984L233.984042,400.811572L234.047327,408.961482L231.366003,438.133720L229.005603,447.990365L238.235273,450.141903L237.543907,458.605022L237.280147,470.121328L233.814370,471.033845L230.593218,473.474466L224.399191,475.507109L225.281273,482.857938L238.450212,487.317923L241.834975,487.792286L241.980585,494.658488L239.933464,503.649062L234.324443,503.703982L227.510877,502.930275L220.382419,506.876060L213.231073,507.110224L210.093078,504.382333L208.284638,520.552320L206.237846,528.296021L206.312408,537.938979L210.240289,540.143618L213.761073,541.380219L213.406891,543.184727L215.965241,543.834109L216.089694,546.365851L218.585750,547.327250L218.489588,550.171612L220.872657,552.522300L221.463489,556.335905L224.488977,557.608112L235.583326,560.066224L243.807553,562.533992L246.172041,569.497936Z "/><path d="M939.798663,303.488656L930.211967,302.250836L918.342959,301.927349L911.871577,301.206746L895.247692,297.717192L888.639881,294.868577L877.511502,291.924604L868.221298,292.331377L852.728586,295.409934L848.759307,294.685710L843.699902,294.489566L843.297930,299.414291L848.047871,301.359437L850.929152,301.421599L853.841041,302.951523L851.630814,305.121782L834.705320,308.379583L830.123448,308.880505L821.943169,308.659013L818.038031,310.590277L815.466795,308.781528L798.293009,303.031188L787.816939,300.128859L782.742439,297.454057L781.697420,295.186632L781.042162,291.660262L780.329793,283.838638L778.079682,282.447523L773.852430,281.343081L768.770626,278.040013L764.477172,278.053290L761.782439,280.018353L756.940585,288.485745L752.465010,287.662543L747.004571,284.291278L742.938619,284.408965L739.747424,288.960112L740.726677,292.624688L740.884601,296.989950L742.072931,303.203795L732.381356,304.179083L728.146211,305.590717L725.990499,305.667967L721.596255,303.586426L718.477576,299.266429L718.368212,290.427874L715.028124,287.226802L710.820553,289.791763L707.126275,295.985693L703.523001,296.662239L701.406213,296.530068L696.764476,295.603664L690.889049,293.248728L686.831237,290.853356L676.759332,282.507272L674.179860,282.094464L674.561513,286.217716L673.580650,290.901637L673.215367,302.221264L674.924985,312.135892L676.081842,316.323717L672.472432,318.119189L668.433444,318.482508L661.092356,320.047435L658.019184,322.224935L653.256116,329.125580L651.583345,332.276557L649.371832,338.189238L650.219819,342.098838L652.323507,345.899200L640.698411,346.678344L637.625240,350.323601L634.281151,356.625549L634.408159,363.054235L636.640980,368.950616L639.633632,373.134813L641.249482,375.395595L646.249327,375.061849L644.516679,378.527857L641.199630,381.615459L642.577007,397.823553L652.158878,399.917158L653.880657,409.764161L655.868818,412.797443L654.063572,415.600181L653.855177,418.885732L649.892567,417.923121L645.878410,417.938209L640.495370,424.599235L640.270835,430.087022L642.617893,433.886768L649.711882,437.003936L650.919008,431.756955L654.376205,429.681458L660.403890,428.539602L660.087860,422.914817L660.606421,418.755372L662.402243,415.567591L668.656248,418.338945L677.296059,420.891826L685.655537,421.944964L690.843624,421.646826L695.272909,424.391625L702.440565,430.864352L704.412828,431.697206L709.877537,432.550580L709.938498,436.358776L711.340222,440.582190L715.022437,443.295604L721.889957,446.032555L725.264841,447.873282L728.750690,451.075544L728.633985,460.547139L729.016002,465.962495L730.225071,470.710964L733.113178,474.999552L741.655198,476.648359L743.031081,477.910915L752.840183,476.996588L758.221686,477.642350L762.524011,477.454053L765.433149,478.387693L770.939469,477.880739L771.324686,475.364076L770.865684,467.432058L772.154585,456.734723L780.731625,461.075216L785.326426,462.773513L789.722276,463.459108L796.337220,463.509200L797.518670,460.045617L801.893993,460.242363L802.745839,450.385121L810.484500,451.726136L814.544381,453.041199L819.539254,457.079935L820.323007,462.495292L830.374980,463.829064L831.987620,460.050445L833.655177,457.984607L838.212802,454.895807L837.549425,449.446048L837.327584,443.193610L840.173875,442.660101L843.775947,443.139293L847.534982,444.808019L862.679658,453.748521L860.776096,458.890486L863.429701,462.412610L866.158483,459.853698L867.053415,465.757903L872.070455,466.478502L874.179044,468.920330L879.330332,465.902143L882.724268,463.202010L887.009393,462.247850L891.593404,462.377002L896.686449,465.300437L900.170827,468.507525L902.778631,468.920330L906.677048,466.325812L915.050927,458.967736L918.428915,458.785474L924.252902,460.729401L928.639220,461.314813L933.069364,459.662987L936.866903,457.592924L939.809274,454.406958L946.655450,450.164837L954.430524,450.079137L951.825698,430.482326L951.294148,418.325064L951.386359,395.650284L951.014903,382.409690L946.818288,355.486105L943.311993,341.310038L939.798663,303.488656Z "/><path d="M405.784079,319.493404L402.068604,326.330077L402.172908,332.985692L398.245042,335.214490L395.849704,343.400026L389.744088,348.510629L387.526959,352.538517L387.904275,355.691905L387.189705,361.031843L384.863236,361.488103L403.994367,371.841472L403.692165,375.378093L401.652783,374.655077L399.323826,375.700372L401.960330,378.987135L398.871703,379.308207L397.983669,387.006088L401.377539,391.330902L399.313729,394.733539L391.086406,392.015292L388.606814,395.003312L386.152221,393.553660L377.308193,385.567903L374.751287,385.885957L376.495728,388.065867L375.437591,390.598230L375.438783,395.938765L373.273538,404.923946L376.957385,405.573331L376.804892,409.700188L372.641725,412.068393L369.528791,415.613458L369.914682,423.275117L368.068440,426.365732L368.829515,430.593373L373.103567,429.645850L382.980174,430.452150L385.911408,433.912719L389.022054,441.393318L390.119702,448.707343L388.033669,449.057987L389.016280,452.385780L393.481116,454.003809L392.582420,457.542832L392.727992,461.565876L395.631931,464.748220L394.478986,466.034314L396.206146,467.728988L398.311923,466.302275L401.134179,469.624031L402.612499,472.914403L400.810219,473.300050L400.010729,476.909078L395.917059,475.567461L380.958605,467.803824L376.943510,474.853501L376.002076,478.288716L376.813602,482.101732L375.733858,484.773499L375.408477,489.387379L368.693594,498.839645L369.016440,503.070290L373.740460,504.166275L383.302953,513.261856L386.022241,511.729531L388.225119,513.526196L389.828024,521.291626L388.977841,529.513311L387.337553,537.946221L386.569075,546.376111L389.399673,548.206570L388.565301,553.723293L391.106514,557.081848L389.181394,558.127738L387.490356,556.779488L385.542004,561.431976L388.296941,562.500196L386.605747,565.314984L388.251485,567.807495L388.679358,571.552900L392.307310,575.185447L394.790884,575.734041L395.838571,577.846941L398.461855,578.846358L400.201750,581.026852L401.029956,583.140958L400.050268,585.883321L399.777440,593.689156L401.937071,595.384423L406.684909,594.504502L408.455099,592.486959L411.046828,596.054322L413.643053,600.660933L419.402844,601.860716L421.235097,614.032349L429.327464,617.759035L431.839647,626.668074L444.571127,630.004285L444.492544,636.318220L447.395746,637.318238L449.432408,638.170999L451.870652,638.872279L453.526896,640.518053L455.649111,641.186140L458.115516,634.747280L460.133490,632.402036L463.820382,629.860650L465.210160,628.109260L465.034402,623.369884L466.842900,619.157976L469.595816,619.255141L478.285220,617.856201L479.893392,625.161106L483.460827,625.951103L486.934693,623.477309L497.519743,622.982429L499.560274,617.597294L501.581673,598.120749L504.932691,597.290316L509.634972,597.514822L515.365664,599.374848L519.188307,601.160641L520.619050,595.006021L521.214614,590.512265L523.517283,588.536364L523.915435,586.223099L527.732551,579.582645L530.596961,577.269982L534.713278,572.101493L539.842109,561.900303L541.656730,559.707134L544.909625,554.983430L544.043047,552.802934L547.745344,550.148679L547.600773,546.417754L549.707945,544.676011L552.932105,540.592029L553.030892,537.089231L553.665348,533.678769L554.348344,532.981106L561.903240,531.959356L562.699277,523.335732L555.967481,523.363493L553.943956,528.760124L550.725949,527.104079L548.928735,524.953152L547.647253,522.822744L544.800625,520.803382L546.202433,508.865850L541.995966,498.752739L545.260692,494.653056L547.984896,495.512463L550.822320,496.281945L557.277621,496.257805L562.870895,493.030805L567.287152,493.904696L575.698886,491.394070L586.176281,491.194910L585.929858,488.259408L590.789312,488.059040L597.574787,489.730176L602.329186,487.944372L605.379349,485.502546L607.004938,481.562792L606.124858,476.414195L608.013245,472.929491L615.926752,473.256597L624.779817,472.841377L626.234749,468.170159L623.119949,463.498336L623.742303,460.025701L630.416801,458.580881L634.576924,460.830189L638.612125,463.953992L642.443495,462.495895L648.610934,461.512766L651.203988,459.151808L650.518325,449.390524L650.685682,443.931108L653.202895,439.962378L652.219374,438.533249L649.711882,437.003936L642.617893,433.886768L640.270835,430.087022L640.495370,424.599235L645.878410,417.938209L649.892567,417.923121L653.855177,418.885732L654.063572,415.600181L655.868818,412.797443L653.880657,409.764161L652.158878,399.917158L642.577007,397.823553L641.199630,381.615459L644.516679,378.527857L646.249327,375.061849L641.249482,375.395595L639.633632,373.134813L636.073891,375.528369L630.540452,376.953277L627.317438,379.767485L619.814764,382.424778L615.987022,382.163454L613.351929,375.667178L614.495156,369.574051L617.293355,361.585873L613.719571,355.304446L608.526938,353.542773L601.483230,353.259722L600.051756,344.451961L598.448026,339.562245L596.390685,334.464315L593.426553,330.734564L589.383504,329.039880L585.797558,330.174498L582.344697,332.848090L579.433415,340.314231L578.529867,334.160745L577.240918,330.493760L574.973659,335.298983L573.714428,341.149502L570.896905,335.603157L568.778030,329.350693L563.529580,318.705207L559.341332,315.367138L549.777174,314.369520L548.010602,321.258700L547.356334,326.716933L546.034130,331.707438L546.876094,337.595979L542.108895,340.164558L542.519879,342.874964L541.124496,348.330780L536.255575,346.420641L530.988930,344.493000L522.576053,339.297904L514.590204,336.520507L505.821098,335.592897L494.689949,333.520411L492.372933,352.843897L487.146405,350.816676L488.137593,343.855080L479.119124,339.789772L471.784510,335.716015L471.504114,333.534895L469.087700,333.089498L469.390794,330.491949L467.163861,329.768329L463.440801,330.292184L460.695435,328.425497L455.272436,328.190125L447.638101,325.499634L447.103924,333.878298L445.028291,342.156776L442.179693,349.570409L441.834562,353.934457L440.099650,357.503066L437.942974,356.849455L436.530652,359.585207L436.188277,364.606486L428.233440,368.706795L424.889963,366.462307L426.916927,353.298951L432.177901,348.790058L433.858088,341.862258L435.753566,343.037311L437.259805,339.051064L439.905560,334.927215L440.943736,330.009737L445.250602,323.459133L439.621825,303.730668L437.344345,300.929730L435.198162,302.559839L436.224648,310.001845L435.261634,316.895251L432.903288,319.841031L429.333162,320.331693L424.914387,312.062866L422.921231,312.723721L420.761454,315.461891L418.026685,322.426511L415.741004,325.477303L411.324318,322.818798L405.784079,319.493404Z "/><path d="M45.786679,474.618130L44.462558,484.279822L47.254149,488.220179L55.842493,493.659065L58.808933,496.837783L59.520198,502.765515L59.048150,506.513347L63.152357,507.952128L78.725225,503.612851L84.175884,503.206081L84.846901,507.157298L86.627386,508.121716L89.366050,525.764276L93.899661,527.131237L102.007005,528.377496L106.797414,528.253171L107.668767,532.967829L107.702707,537.130270L106.149276,538.143571L106.465925,540.083870L108.908992,539.552777L113.413772,543.487691L116.920911,544.269846L117.962261,549.157105L114.072894,548.931390L108.179700,549.582582L104.706430,548.834828L101.655324,559.047493L96.865991,559.832061L96.208975,567.121300L107.213889,568.978915L110.757480,574.584348L112.338871,575.131131L116.195277,583.302699L117.473359,583.608681L119.934742,590.606413L122.272137,598.889020L122.004949,603.192064L119.871170,605.283234L120.457859,608.751619L119.802284,610.661735L117.346667,610.740795L113.244535,609.614641L108.810324,610.501201L106.607603,614.466878L108.714258,618.481439L118.168900,621.112147L119.650892,616.144038L128.196377,618.084328L130.801627,617.934657L133.146905,610.324975L135.497332,609.482472L136.753921,609.581448L138.022885,608.188542L141.430724,608.936897L147.352554,611.132474L147.570721,612.415541L151.131693,613.441511L151.505060,615.035990L155.268634,616.547183L160.634362,617.530304L167.966549,617.570136L172.072061,618.421088L174.794437,618.514028L177.473795,621.069901L178.878934,625.575115L182.389127,624.798396L190.437321,625.147225L192.469494,617.819990L193.594318,611.742625L197.987115,611.378707L202.139085,597.969267L212.240855,598.277662L218.550279,597.733898L218.798458,587.151905L219.772129,585.308777L219.662476,583.229071L220.972903,582.599607L221.637090,580.132445L223.294247,570.275262L227.151657,570.814803L234.445959,573.320591L239.974244,573.093066L244.332817,572.383938L246.172041,569.497936L243.807553,562.533992L235.583326,560.066224L224.488977,557.608112L221.463489,556.335905L220.872657,552.522300L218.489588,550.171612L218.585750,547.327250L216.089694,546.365851L215.965241,543.834109L213.406891,543.184727L213.761073,541.380219L210.240289,540.143618L206.312408,537.938979L206.237846,528.296021L208.284638,520.552320L210.093078,504.382333L213.231073,507.110224L220.382419,506.876060L227.510877,502.930275L234.324443,503.703982L239.933464,503.649062L241.980585,494.658488L241.834975,487.792286L238.450212,487.317923L225.281273,482.857938L224.399191,475.507109L230.593218,473.474466L233.814370,471.033845L237.280147,470.121328L237.543907,458.605022L238.235273,450.141903L229.005603,447.990365L231.366003,438.133720L234.047327,408.961482L233.984042,400.811572L229.247248,399.303984L232.725324,386.322905L235.518590,383.053644L226.982975,381.004698L227.904193,375.557941L231.227530,368.542637L229.688242,364.700032L226.209909,363.948651L218.384545,361.203242L212.976421,355.814419L209.616172,353.121516L206.541186,353.897039L198.679953,362.004716L196.137934,366.832265L193.967010,375.369643L187.536818,369.118395L183.713417,368.647650L168.812179,364.753141L164.136961,365.430290L159.506888,365.309586L155.786278,363.382550L148.738260,357.206135L132.226114,355.609223L123.810860,351.379156L118.614816,349.980802L113.867359,351.178788L111.600342,355.003289L108.565674,358.656995L107.824751,350.061070L107.762871,344.167099L114.350926,340.498304L114.933220,335.746795L101.954429,334.241617L98.428319,335.469779L91.920277,332.830588L87.070360,332.712298L88.277163,340.022731L83.494233,340.564088L78.512858,344.398851L74.082586,350.902979L70.409208,350.989283L71.033717,353.794440L67.021407,354.853617L55.738219,352.200546L48.427160,349.010946L40.222837,344.714491L25.664213,339.930392L24.130498,348.305432L24.211449,353.123327L29.945265,384.021688L30.852458,394.001471L30.216990,399.168796L18.848519,397.506103L14.058724,399.350455L11.248427,398.538119L6.156688,396.324414L0.911760,395.399220L0.653611,402.250964L1.018783,404.684349L4.546611,410.045401L11.879542,415.381104L15.929044,418.797619L18.772737,422.268450L19.821819,426.078457L22.391471,430.381538L27.659619,434.694274L32.334641,436.200654L34.409453,438.236922L36.563652,443.568394L37.294564,448.386272L35.714845,454.773897L36.975418,458.653303L39.773983,461.692011L44.145218,464.552077L46.077439,469.224503L45.786679,474.618130Z "/><path d="M541.656730,559.707134L544.756364,561.760288L549.202377,563.569622L557.650684,567.532293L563.816809,564.417559L568.217502,563.010768L573.017784,562.521319L577.441358,563.811027L581.388889,563.508063L586.881513,562.322159L591.962270,562.534596L595.320107,564.843036L597.576717,569.650625L605.702773,573.850475L605.214530,579.264593L605.113764,589.309464L601.622025,592.262452L598.314844,594.308963L600.528894,598.089970L599.540902,602.553548L602.811154,601.623535L603.858242,611.430609L607.292250,613.283995L608.234721,614.635258L610.472498,616.566496L604.882789,626.700664L608.721215,628.587241L611.607259,629.333784L624.512755,630.228188L630.025450,631.275884L634.975902,631.386930L645.108180,625.751944L649.971862,625.620982L655.454369,628.487058L659.081034,623.826742L661.118207,619.034256L660.387324,614.640689L657.013856,610.682254L652.714869,604.637476L653.952789,600.476862L659.127489,588.122354L663.619797,586.765053L668.153942,586.736085L673.930619,588.238832L674.791588,575.380382L671.280167,572.187192L672.390164,567.708519L673.921249,564.903991L676.630838,564.538261L684.336808,566.762813L684.352443,563.652907L681.126551,555.775240L685.340177,554.421558L687.820537,555.699801L690.858356,558.793414L693.155212,560.387897L697.307981,560.539379L700.759575,557.796409L701.773168,548.212605L704.976413,540.716353L701.995835,532.833245L700.733511,527.525936L705.306126,526.068448L709.319130,525.453466L710.959980,517.194965L714.256216,515.046451L715.847958,511.647453L723.403798,510.947978L727.407737,501.070843L740.131829,506.991935L744.241718,505.229066L746.833137,502.839747L747.916172,500.498106L745.593553,498.374938L751.167801,493.499134L746.686499,490.506901L742.421092,486.921413L744.047944,478.842744L743.031081,477.910915L741.655198,476.648359L733.113178,474.999552L730.225071,470.710964L729.016002,465.962495L728.633985,460.547139L728.750690,451.075544L725.264841,447.873282L721.889957,446.032555L715.022437,443.295604L711.340222,440.582190L709.938498,436.358776L709.877537,432.550580L704.412828,431.697206L702.440565,430.864352L695.272909,424.391625L690.843624,421.646826L685.655537,421.944964L677.296059,420.891826L668.656248,418.338945L662.402243,415.567591L660.606421,418.755372L660.087860,422.914817L660.403890,428.539602L654.376205,429.681458L650.919008,431.756955L649.711882,437.003936L652.219374,438.533249L653.202895,439.962378L650.685682,443.931108L650.518325,449.390524L651.203988,459.151808L648.610934,461.512766L642.443495,462.495895L638.612125,463.953992L634.576924,460.830189L630.416801,458.580881L623.742303,460.025701L623.119949,463.498336L626.234749,468.170159L624.779817,472.841377L615.926752,473.256597L608.013245,472.929491L606.124858,476.414195L607.004938,481.562792L605.379349,485.502546L602.329186,487.944372L597.574787,489.730176L590.789312,488.059040L585.929858,488.259408L586.176281,491.194910L575.698886,491.394070L567.287152,493.904696L562.870895,493.030805L557.277621,496.257805L550.822320,496.281945L547.984896,495.512463L545.260692,494.653056L541.995966,498.752739L546.202433,508.865850L544.800625,520.803382L547.647253,522.822744L548.928735,524.953152L550.725949,527.104079L553.943956,528.760124L555.967481,523.363493L562.699277,523.335732L561.903240,531.959356L554.348344,532.981106L553.665348,533.678769L553.030892,537.089231L552.932105,540.592029L549.707945,544.676011L547.600773,546.417754L547.745344,550.148679L544.043047,552.802934L544.909625,554.983430L541.656730,559.707134Z "/><path d="M830.713215,763.980796L835.621747,763.660938L836.518385,761.560741L837.207065,757.669943L839.715241,753.261940L843.418180,749.744106L847.855516,743.748277L850.585466,737.550270L855.220129,730.455451L861.615269,727.793384L864.684341,729.953937L864.631856,734.358326L865.325133,744.127882L867.910635,748.525025L871.861606,748.138781L875.908999,746.857539L882.543464,742.890695L885.833516,742.024061L889.273972,739.266038L891.966164,734.858029L894.700283,734.578003L897.486864,737.290159L902.243034,737.281710L906.262775,738.823065L908.608969,742.053029L909.123149,748.176199L910.502408,749.996975L925.485848,746.050651L928.731944,746.904612L935.673954,742.010180L936.836632,737.949188L936.851064,733.132605L937.555302,726.011832L938.533605,725.357028L945.827844,726.790356L951.694912,724.684118L951.827306,718.285739L949.290634,707.901191L949.846941,703.634303L950.092777,696.023456L949.124415,690.990797L954.693364,690.244256L959.844413,688.380017L963.327149,686.414388L967.057469,682.595382L970.809585,680.735366L968.654003,672.626612L970.879210,669.022452L972.836254,664.717616L970.998823,659.861170L966.796827,651.130789L966.434878,645.922493L965.473159,640.364761L966.701819,601.908997L965.976001,596.386254L965.951291,591.748863L965.075681,592.683100L961.698865,593.774251L955.800090,593.751921L951.949825,577.014696L948.677786,558.112650L947.530977,540.394076L945.246635,519.499790L944.898530,510.169443L945.206243,497.656151L946.003083,490.455603L947.197165,485.001628L952.387605,469.896217L955.257285,458.603211L954.430524,450.079137L946.655450,450.164837L939.809274,454.406958L936.866903,457.592924L933.069364,459.662987L928.639220,461.314813L924.252902,460.729401L918.428915,458.785474L915.050927,458.967736L906.677048,466.325812L902.778631,468.920330L900.170827,468.507525L896.686449,465.300437L891.593404,462.377002L887.009393,462.247850L882.724268,463.202010L879.330332,465.902143L874.179044,468.920330L872.070455,466.478502L867.053415,465.757903L866.158483,459.853698L863.429701,462.412610L860.776096,458.890486L862.679658,453.748521L847.534982,444.808019L843.775947,443.139293L840.173875,442.660101L837.327584,443.193610L837.549425,449.446048L838.212802,454.895807L833.655177,457.984607L831.987620,460.050445L830.374980,463.829064L820.323007,462.495292L819.539254,457.079935L814.544381,453.041199L810.484500,451.726136L802.745839,450.385121L801.893993,460.242363L797.518670,460.045617L796.337220,463.509200L789.722276,463.459108L785.326426,462.773513L780.731625,461.075216L772.154585,456.734723L770.865684,467.432058L771.324686,475.364076L770.939469,477.880739L765.433149,478.387693L762.524011,477.454053L758.221686,477.642350L752.840183,476.996588L743.031081,477.910915L744.047944,478.842744L742.421092,486.921413L746.686499,490.506901L751.167801,493.499134L745.593553,498.374938L747.916172,500.498106L752.190405,502.860870L758.790451,503.642423L769.060401,505.847066L775.404705,509.218303L773.355628,515.060332L772.939145,520.270479L773.272784,524.951945L790.380845,536.503218L787.752023,540.041624L786.262670,545.044758L788.585812,548.393056L803.525132,560.476614L807.623193,565.149017L812.345296,566.601675L811.402472,580.798120L813.469428,599.634358L806.875247,599.513052L805.637984,603.398465L796.221484,606.189106L794.293234,621.998705L800.913407,628.409205L812.968705,637.883124L813.994319,640.711780L820.040895,642.862693L820.706998,651.810946L820.160142,658.420591L824.165661,659.736847L826.126636,659.346376L829.839896,662.831647L836.218579,662.779745L842.314929,664.091173L844.725659,668.559560L846.877903,677.749805L847.630836,684.285811L847.412701,694.357169L848.055512,703.591453L845.583648,708.596432L844.328453,716.339429L844.063592,722.910412L841.653664,729.520016L838.725824,733.723438L835.499930,741.091644L831.646014,756.995224L830.713215,763.980796Z "/><path d="M550.397755,620.878588L558.916906,621.524345L561.782493,622.121822L563.020567,624.081424L568.850287,629.141264L573.082507,631.574622L577.310888,634.869190L578.131249,641.865693L578.318240,646.583940L577.293416,650.595476L574.047927,657.557572L571.237746,659.275162L567.878924,660.213620L566.423678,660.153269L563.425069,658.464044L563.284306,662.249863L565.620434,664.438191L564.681190,665.271638L564.413668,673.075624L565.734278,675.777536L568.002376,676.932653L570.406591,672.672479L574.478573,669.020038L576.010165,670.648911L576.837881,673.788368L579.334098,688.573743L582.049302,692.413267L588.780360,699.258263L594.478358,703.774920L603.337324,707.011018L619.444507,715.177678L622.155134,718.332209L626.791976,722.341908L638.582775,724.227263L647.531208,730.218876L649.620233,735.132021L649.649947,736.836323L655.242978,733.358920L658.293093,732.247865L660.279054,729.695636L667.181055,728.434308L672.372422,728.486813L686.738438,731.573145L693.004586,734.993818L698.190360,731.296739L699.707672,727.439729L699.968683,712.265756L701.406238,703.646976L704.373937,700.564255L706.451094,697.232888L710.037793,689.559877L713.616163,687.099371L718.231071,686.277391L720.173305,684.103551L720.897253,679.623702L720.264874,675.044875L716.795246,671.071971L717.038407,666.594532L719.063560,662.881739L722.710483,659.895570L731.515732,661.716964L744.309158,662.931226L755.344053,665.061013L761.745626,666.892666L764.626008,669.331449L770.580955,669.172123L775.891051,671.147410L776.652503,675.760034L775.439983,678.386508L771.545840,679.973134L769.487336,682.253192L767.817920,686.838655L764.912032,687.268957L760.609909,686.093924L758.663744,687.044451L757.337111,695.057239L754.782510,703.610766L755.665559,707.843254L758.280190,710.347810L764.173888,713.429318L768.823298,715.102843L775.754738,719.970127L779.974675,723.503055L787.457098,727.130734L790.534570,725.679300L791.287983,718.762509L790.939178,712.504141L791.149349,707.237937L792.531066,703.596885L793.812114,687.454837L795.539362,683.357614L800.087970,683.308730L802.164727,682.323199L805.502341,682.208532L809.077719,684.329264L813.939590,682.915242L817.170584,680.563366L821.071430,681.111956L826.060035,682.670820L829.681970,681.366637L826.612505,674.624833L825.468979,668.753890L828.014426,665.669955L829.839896,662.831647L826.126636,659.346376L824.165661,659.736847L820.160142,658.420591L820.706998,651.810946L820.040895,642.862693L813.994319,640.711780L812.968705,637.883124L800.913407,628.409205L794.293234,621.998705L796.221484,606.189106L805.637984,603.398465L806.875247,599.513052L813.469428,599.634358L811.402472,580.798120L812.345296,566.601675L807.623193,565.149017L803.525132,560.476614L788.585812,548.393056L786.262670,545.044758L787.752023,540.041624L790.380845,536.503218L773.272784,524.951945L772.939145,520.270479L773.355628,515.060332L775.404705,509.218303L769.060401,505.847066L758.790451,503.642423L752.190405,502.860870L747.916172,500.498106L746.833137,502.839747L744.241718,505.229066L740.131829,506.991935L727.407737,501.070843L723.403798,510.947978L715.847958,511.647453L714.256216,515.046451L710.959980,517.194965L709.319130,525.453466L705.306126,526.068448L700.733511,527.525936L701.995835,532.833245L704.976413,540.716353L701.773168,548.212605L700.759575,557.796409L697.307981,560.539379L693.155212,560.387897L690.858356,558.793414L687.820537,555.699801L685.340177,554.421558L681.126551,555.775240L684.352443,563.652907L684.336808,566.762813L676.630838,564.538261L673.921249,564.903991L672.390164,567.708519L671.280167,572.187192L674.791588,575.380382L673.930619,588.238832L668.153942,586.736085L663.619797,586.765053L659.127489,588.122354L653.952789,600.476862L652.714869,604.637476L657.013856,610.682254L660.387324,614.640689L661.118207,619.034256L659.081034,623.826742L655.454369,628.487058L649.971862,625.620982L645.108180,625.751944L634.975902,631.386930L630.025450,631.275884L624.512755,630.228188L611.607259,629.333784L608.721215,628.587241L604.882789,626.700664L610.472498,616.566496L608.234721,614.635258L607.292250,613.283995L603.858242,611.430609L602.811154,601.623535L599.540902,602.553548L600.528894,598.089970L598.314844,594.308963L601.622025,592.262452L605.113764,589.309464L605.214530,579.264593L605.702773,573.850475L597.576717,569.650625L595.320107,564.843036L591.962270,562.534596L586.881513,562.322159L581.388889,563.508063L577.441358,563.811027L573.017784,562.521319L568.217502,563.010768L563.816809,564.417559L557.650684,567.532293L549.202377,563.569622L544.756364,561.760288L541.656730,559.707134L539.842109,561.900303L534.713278,572.101493L530.596961,577.269982L527.732551,579.582645L523.915435,586.223099L523.517283,588.536364L521.214614,590.512265L520.619050,595.006021L519.188307,601.160641L519.502944,603.138351L520.951362,605.221676L521.953743,608.515646L520.869642,612.155427L522.942610,612.947838L533.959125,609.829492L539.707095,609.292366L545.271637,609.740172L546.144823,620.111524L550.397755,620.878588Z M668.984310,626.145433L667.059292,623.951065L667.137489,622.306496L669.238824,618.416863L676.927179,622.024053L675.624368,624.371713L672.690150,625.850920L668.984310,626.145433Z "/></g></svg>

